<?xml version="1.0"?>
<svg version="1.1" xmlns="http://www.w3.org/2000/svg" width="215px" height="66px" style=""><path fill="#00a877" d="M50.80419921875,28.16162109375q0-0.9228515625,0.31640625-1.2392578125t0.88330078125-0.31640625q0.158203125,0,0.336181640625,0.0263671875t0.336181640625,0.0791015625q0.88330078125-0.17138671875,1.67431640625-0.17138671875q1.27880859375,0,2.3203125,0.4482421875q1.67431640625,0.7119140625,2.7685546875,2.109375t1.6083984375,3.28271484375t0.51416015625,3.86279296875q0,1.107421875-0.151611328125,2.30712890625t-0.586669921875,2.22802734375q-0.38232421875,0.9228515625-1.0546875,1.931396484375t-1.522705078125,1.91162109375t-1.83251953125,1.58203125t-1.984130859375,0.916259765625l0,0.10546875q0,0.263671875-0.138427734375,0.428466796875t-0.336181640625,0.25048828125t-0.454833984375,0.112060546875t-0.481201171875,0.0263671875q-0.1318359375,0-0.375732421875-0.0263671875t-0.474609375-0.098876953125t-0.388916015625-0.191162109375t-0.158203125-0.32958984375q0-2.3994140625-0.125244140625-4.805419921875t-0.283447265625-4.81201171875t-0.283447265625-4.805419921875t-0.125244140625-4.81201171875z M53.2958984375,27.4892578125q0.1318359375,1.265625,0.17138671875,2.524658203125t0.11865234375,2.524658203125q0.2109375,3.26953125,0.48779296875,6.506103515625t0.32958984375,6.506103515625q1.265625-0.83056640625,2.168701171875-1.8984375t1.483154296875-2.3203125t0.850341796875-2.630126953125t0.270263671875-2.841064453125q0-1.0546875-0.1845703125-2.3203125t-0.6328125-2.43896484375t-1.206298828125-2.12255859375t-1.891845703125-1.35791015625q-0.2373046875-0.0791015625-0.573486328125-0.1318359375t-1.074462890625-0.052734375q-0.0791015625,0-0.158203125,0.0263671875t-0.158203125,0.0263671875z M64.247114257813,41.26611328125q0-1.212890625,0.283447265625-2.379638671875t0.481201171875-2.326904296875q0.052734375-0.30322265625,0.415283203125-0.375732421875t0.613037109375-0.072509765625q0.43505859375,0,0.69873046875,0.1318359375q0.10546875,0.052734375,0.19775390625,0.11865234375t0.09228515625,0.17138671875q0,1.1337890625-0.270263671875,2.21484375t-0.270263671875,2.2939453125q0,0.40869140625,0.059326171875,0.771240234375t0.112060546875,0.718505859375l0.0791015625,0.38232421875q0,0.10546875,0.01318359375,0.1845703125t0.03955078125,0.1845703125q0,0.2373046875-0.336181640625,0.322998046875t-0.586669921875,0.085693359375q-0.38232421875,0-0.705322265625-0.151611328125t-0.507568359375-0.520751953125l-0.1845703125-0.38232421875q-0.158203125-0.30322265625-0.158203125-0.678955078125t-0.06591796875-0.692138671875z M65.090864257813,33.32958984375l0-0.25048828125q0-0.61962890625,0.309814453125-1.107421875t0.929443359375-0.48779296875q0.0791015625,0,0.151611328125,0.01318359375t0.151611328125,0.01318359375q0.158203125,0.0263671875,0.415283203125,0.125244140625t0.257080078125,0.309814453125l0,0.0263671875q-0.052734375,0.10546875-0.06591796875,0.217529296875t-0.06591796875,0.191162109375l0.0263671875-0.0263671875q-0.158203125,0.40869140625-0.257080078125,0.6591796875t-0.217529296875,0.402099609375t-0.296630859375,0.217529296875t-0.507568359375,0.06591796875q-0.052734375,0-0.1845703125-0.01318359375t-0.283447265625-0.052734375t-0.257080078125-0.10546875t-0.10546875-0.19775390625z M70.003994140625,41.12109375q0-0.72509765625,0.138427734375-1.549072265625t0.474609375-1.509521484375t0.929443359375-1.1337890625t1.51611328125-0.4482421875q0.61962890625,0,1.19970703125,0.204345703125t1.09423828125,0.560302734375q0.158203125-0.263671875,0.5009765625-0.322998046875t0.6064453125-0.059326171875q0.10546875,0,0.296630859375,0.01318359375t0.375732421875,0.0791015625t0.322998046875,0.158203125t0.164794921875,0.263671875q0.10546875,0.9228515625,0.14501953125,1.839111328125t0.11865234375,1.825927734375q0.1318359375,1.70068359375,0.40869140625,3.36181640625t0.27685546875,3.36181640625q0,0.80419921875-0.072509765625,1.740234375t-0.38232421875,1.733642578125t-0.903076171875,1.324951171875t-1.64794921875,0.52734375q-0.94921875,0-1.456787109375-0.336181640625t-0.916259765625-1.127197265625q0.0263671875-0.263671875,0.336181640625-0.349365234375t0.533935546875-0.085693359375q0.2109375,0,0.428466796875,0.03955078125t0.349365234375,0.1318359375l0.32958984375,0.2109375q0.48779296875-1.001953125,0.59326171875-2.1884765625t0.10546875-2.2939453125q0-0.9228515625-0.09228515625-1.825927734375t-0.1845703125-1.812744140625q-0.9228515625,1.67431640625-2.80810546875,1.67431640625q-0.8701171875,0-1.417236328125-0.369140625t-0.84375-0.93603515625t-0.40869140625-1.27880859375t-0.112060546875-1.423828125z M71.625576171875,41.23974609375q0,0.32958984375,0.0263671875,0.850341796875t0.138427734375,1.021728515625t0.322998046875,0.863525390625t0.59326171875,0.362548828125q0.72509765625,0,1.14697265625-0.56689453125t0.665771484375-1.351318359375t0.388916015625-1.62158203125t0.369140625-1.377685546875q-0.0263671875-0.1845703125-0.0263671875-0.362548828125l0-0.362548828125q-0.30322265625-0.56689453125-0.88330078125-0.982177734375t-1.19970703125-0.560302734375q-0.0791015625-0.01318359375-0.14501953125-0.01318359375q-0.369140625,0-0.6064453125,0.43505859375q-0.30322265625,0.52734375-0.474609375,1.259033203125t-0.243896484375,1.443603515625t-0.072509765625,0.96240234375z M81.271616210938,41.26611328125q0-1.212890625,0.283447265625-2.379638671875t0.481201171875-2.326904296875q0.052734375-0.30322265625,0.415283203125-0.375732421875t0.613037109375-0.072509765625q0.43505859375,0,0.69873046875,0.1318359375q0.10546875,0.052734375,0.19775390625,0.11865234375t0.09228515625,0.17138671875q0,1.1337890625-0.270263671875,2.21484375t-0.270263671875,2.2939453125q0,0.40869140625,0.059326171875,0.771240234375t0.112060546875,0.718505859375l0.0791015625,0.38232421875q0,0.10546875,0.01318359375,0.1845703125t0.03955078125,0.1845703125q0,0.2373046875-0.336181640625,0.322998046875t-0.586669921875,0.085693359375q-0.38232421875,0-0.705322265625-0.151611328125t-0.507568359375-0.520751953125l-0.1845703125-0.38232421875q-0.158203125-0.30322265625-0.158203125-0.678955078125t-0.06591796875-0.692138671875z M82.115366210938,33.32958984375l0-0.25048828125q0-0.61962890625,0.309814453125-1.107421875t0.929443359375-0.48779296875q0.0791015625,0,0.151611328125,0.01318359375t0.151611328125,0.01318359375q0.158203125,0.0263671875,0.415283203125,0.125244140625t0.257080078125,0.309814453125l0,0.0263671875q-0.052734375,0.10546875-0.06591796875,0.217529296875t-0.06591796875,0.191162109375l0.0263671875-0.0263671875q-0.158203125,0.40869140625-0.257080078125,0.6591796875t-0.217529296875,0.402099609375t-0.296630859375,0.217529296875t-0.507568359375,0.06591796875q-0.052734375,0-0.1845703125-0.01318359375t-0.283447265625-0.052734375t-0.257080078125-0.10546875t-0.10546875-0.19775390625z M87.02849609375,36.07177734375q0-0.1318359375,0.204345703125-0.22412109375t0.48779296875-0.1318359375t0.54052734375-0.06591796875t0.388916015625-0.0263671875q0.052734375-0.35595703125,0.151611328125-0.96240234375t0.243896484375-1.298583984375t0.362548828125-1.390869140625t0.52734375-1.265625t0.731689453125-0.929443359375t0.98876953125-0.362548828125l-0.0263671875,0q0.1845703125-0.0263671875,0.362548828125-0.03955078125t0.362548828125-0.01318359375q0.43505859375,0,0.942626953125,0.17138671875t0.942626953125,0.481201171875t0.731689453125,0.744873046875t0.296630859375,0.9228515625q0,0.38232421875-0.191162109375,0.823974609375t-0.665771484375,0.441650390625q-0.158203125,0-0.322998046875-0.0791015625t-0.309814453125-0.17138671875q0.052734375-0.30322265625,0.052734375-0.6064453125q0-0.158203125-0.01318359375-0.30322265625q-0.03955078125-0.46142578125-0.19775390625-0.810791015625t-0.454833984375-0.5537109375t-0.705322265625-0.151611328125q-0.54052734375,0.0791015625-0.810791015625,0.6591796875t-0.375732421875,1.377685546875t-0.1318359375,1.62158203125t-0.10546875,1.338134765625q0.61962890625,0.052734375,1.048095703125,0.052734375l1.074462890625,0q0.10546875,0,0.362548828125,0.01318359375t0.5009765625,0.052734375t0.43505859375,0.138427734375t0.191162109375,0.257080078125q0,0.1318359375-0.10546875,0.230712890625t-0.257080078125,0.138427734375t-0.31640625,0.052734375t-0.270263671875,0.01318359375q-0.46142578125,0-0.784423828125-0.03955078125t-0.61962890625-0.072509765625t-0.61962890625-0.032958984375t-0.758056640625,0.09228515625q-0.1318359375,1.46337890625-0.2109375,2.900390625t-0.0791015625,2.900390625q0,2.2939453125,0.14501953125,4.49560546875t0.52734375,4.46923828125q0.052734375,0.2109375,0.09228515625,0.481201171875t0.03955078125,0.520751953125q0,0.2373046875-0.14501953125,0.388916015625t-0.362548828125,0.217529296875t-0.4482421875,0.09228515625t-0.415283203125,0.0263671875q-0.75146484375,0-1.0546875-0.230712890625t-0.43505859375-0.929443359375q-0.32958984375-1.85888671875-0.421875-3.750732421875t-0.09228515625-3.816650390625q0-1.88525390625,0.138427734375-3.763916015625t0.349365234375-3.737548828125q-0.10546875,0-0.362548828125,0.01318359375t-0.51416015625,0t-0.4482421875-0.09228515625t-0.191162109375-0.27685546875z M96.753637695312,41.58251953125q0-0.896484375,0.243896484375-1.72705078125t0.731689453125-1.483154296875t1.219482421875-1.04150390625t1.694091796875-0.388916015625q0.59326171875,0,1.311767578125,0.177978515625t1.351318359375,0.52734375t1.0546875,0.889892578125t0.421875,1.2392578125q0,0.32958984375-0.112060546875,0.5009765625t-0.454833984375,0.17138671875l-0.14501953125-0.0263671875q0.38232421875,1.0283203125,0.6591796875,2.109375t0.54052734375,2.162109375q0.10546875,0.2109375,0.158203125,0.375732421875t0.052734375,0.322998046875q0,0.2109375-0.11865234375,0.349365234375t-0.309814453125,0.204345703125t-0.3955078125,0.09228515625t-0.362548828125,0.0263671875q-0.56689453125,0-0.850341796875-0.19775390625t-0.40869140625-0.54052734375t-0.151611328125-0.771240234375t-0.10546875-0.863525390625q-0.158203125,0.51416015625-0.415283203125,1.001953125t-0.6064453125,0.876708984375t-0.823974609375,0.61962890625t-1.06787109375,0.230712890625q-0.8701171875,0-1.46337890625-0.5009765625t-0.955810546875-1.232666015625t-0.52734375-1.562255859375t-0.164794921875-1.54248046875z M98.625708007812,41.39794921875q0,0.48779296875,0.06591796875,1.0283203125t0.217529296875,1.06787109375t0.388916015625,0.995361328125t0.59326171875,0.823974609375q0.64599609375-0.69873046875,0.955810546875-1.70068359375t0.5537109375-1.931396484375t0.5537109375-1.59521484375t0.955810546875-0.665771484375q0.40869140625,0,0.685546875,0.14501953125q-0.1318359375-0.32958984375-0.43505859375-0.639404296875t-0.678955078125-0.56689453125t-0.77783203125-0.421875t-0.758056640625-0.164794921875q-0.10546875,0-0.243896484375,0.032958984375t-0.217529296875,0.006591796875q-0.54052734375,0.158203125-0.889892578125,0.547119140625t-0.56689453125,0.916259765625t-0.309814453125,1.0810546875t-0.09228515625,1.04150390625z M108.17946289062,37.89111328125q0-0.54052734375,0.191162109375-0.90966796875t0.810791015625-0.369140625q0.2373046875,0,0.59326171875,0.072509765625t0.40869140625,0.362548828125q0.1318359375,0.77783203125,0.14501953125,1.6875t0.09228515625,1.7138671875q0.30322265625-0.59326171875,0.77783203125-1.27880859375t1.0810546875-1.265625t1.318359375-0.96240234375t1.4501953125-0.38232421875q0.052734375,0,0.19775390625,0.03955078125t0.270263671875,0.112060546875t0.151611328125,0.164794921875t-0.14501953125,0.17138671875q-0.052734375,0.158203125-0.22412109375,0.191162109375t-0.30322265625,0.032958984375q-0.0791015625,0-0.25048828125-0.06591796875q-0.9755859375,0.51416015625-1.6611328125,1.3974609375t-1.12060546875,1.957763671875t-0.6328125,2.267578125t-0.19775390625,2.326904296875q0,0.56689453125-0.257080078125,0.685546875t-0.823974609375,0.11865234375q-0.30322265625,0-0.639404296875-0.06591796875t-0.468017578125-0.421875q-0.2373046875-0.75146484375-0.388916015625-1.72705078125t-0.230712890625-2.010498046875t-0.112060546875-2.036865234375t-0.032958984375-1.80615234375z M117.58160644531,38.280029296875q-0.032958984375-0.441650390625,0.052734375-0.810791015625t0.3427734375-0.599853515625t0.823974609375-0.230712890625q0.1318359375,0,0.322998046875,0.032958984375t0.375732421875,0.085693359375t0.309814453125,0.158203125t0.125244140625,0.2900390625l0,1.48974609375q0.51416015625-0.59326171875,1.12060546875-0.850341796875t1.38427734375-0.257080078125q0.59326171875,0,1.17333984375,0.270263671875t1.09423828125,0.718505859375t0.889892578125,0.98876953125t0.547119140625,1.0810546875q0.10546875-0.48779296875,0.2373046875-1.193115234375t0.388916015625-1.351318359375t0.678955078125-1.107421875t1.12060546875-0.46142578125q0.75146484375,0,1.265625,0.54052734375t0.837158203125,1.404052734375t0.48779296875,1.931396484375t0.243896484375,2.109375t0.0791015625,1.944580078125l0,1.417236328125q0,0.158203125-0.11865234375,0.257080078125t-0.296630859375,0.151611328125t-0.369140625,0.06591796875t-0.296630859375,0.01318359375q-0.40869140625,0-0.744873046875-0.125244140625t-0.336181640625-0.639404296875l0-1.1865234375t-0.0263671875-1.535888671875t-0.09228515625-1.64794921875t-0.17138671875-1.496337890625t-0.270263671875-1.0810546875t-0.402099609375-0.421875q-0.32958984375,0-0.474609375,0.369140625t-0.243896484375,0.93603515625t-0.151611328125,1.19970703125t-0.14501953125,1.19970703125t-0.296630859375,0.929443359375t-0.560302734375,0.362548828125q-0.38232421875,0-0.67236328125-0.362548828125t-0.573486328125-0.903076171875t-0.56689453125-1.16015625t-0.626220703125-1.16015625q-0.3427734375-0.5537109375-0.73828125-0.896484375q-0.35595703125-0.32958984375-0.80419921875-0.31640625l-0.06591796875,0q-0.59326171875,0.0263671875-0.929443359375,0.428466796875t-0.51416015625,0.982177734375t-0.217529296875,1.245849609375t-0.03955078125,1.166748046875q0,0.474609375,0.0791015625,1.107421875q0.052734375,0.421875,0.052734375,0.80419921875q0,0.19775390625-0.01318359375,0.38232421875q-0.03955078125,0.5537109375-0.296630859375,0.929443359375t-0.955810546875,0.375732421875q-0.263671875,0-0.6591796875-0.052734375t-0.52734375-0.35595703125q-0.30322265625-0.54052734375-0.46142578125-1.364501953125t-0.2373046875-1.70068359375t-0.09228515625-1.740234375t-0.01318359375-1.483154296875q0-0.43505859375-0.032958984375-0.876708984375z"/><path fill="#" d=""/></svg>
