
        <svg xmlns="http://www.w3.org/2000/svg" xmlns:xlink="http://www.w3.org/1999/xlink" version="1.1" width="3162.2002820874472" height="1008.771329866564" viewBox="0 0 3162.2002820874472 1008.771329866564">
			
			<g transform="scale(8.110014104372354) translate(10, 10)">
				<defs id="SvgjsDefs4363"/><g id="SvgjsG4364" featureKey="symbolFeature-0" transform="matrix(0.9510837819371247,0,0,0.9510837819371247,-9.510837819371247,4.483850647056533)" fill="#000"><path xmlns="http://www.w3.org/2000/svg" d="M11,90h78c0.5527344,0,1-0.4472656,1-1c0-5.4882812-3.59375-10.4013672-8.7890625-12.0888672  c-2.7070312-4.515625-7.6015625-7.3046875-12.8701172-7.3046875c-4.4472656,0-8.6875,2.0117188-11.5292969,5.4248047  c-1.7523804-1.1205444-3.7583618-1.7596436-5.8082275-1.9240723l0.0021973-5.2389526l10.7789307-7.0297241  c2.4143066,3.111084,6.1038818,4.7991943,9.9226074,4.7991943c2.4755859,0,4.9980469-0.7021484,7.2451172-2.1679688  c8.0341797-5.2441406,10.9130859-20.7402344,11.0322266-21.3974609c0.0947266-0.5283203-0.2431641-1.0371094-0.7675781-1.1542969  c-0.6630859-0.1464844-16.3007812-3.5449219-24.0224609,1.4941406c-2.9013672,1.8935547-4.9189453,4.7666016-5.6787109,8.0898438  c-0.685791,2.9995728-0.265686,6.0380249,1.1630859,8.6698608l-9.6722412,6.3079834l0.0089111-21.7011719  c6.3933716-0.5291138,11.4437256-6.0644531,11.4455566-12.8049927c0.0029297-9.4833984-11.2646484-20.2412109-11.7451172-20.6943359  c-0.3876953-0.3691406-1-0.3642578-1.3857422,0.0107422c-0.4785156,0.46875-11.7421875,11.5751953-11.7441406,20.6904297  c-0.0009766,3.4267578,1.2871094,6.6494141,3.6279297,9.0751953c2.1112671,2.1885376,4.852478,3.4836426,7.8015137,3.7249756  L49.0064697,65.477356l-9.6685181-6.3057251c1.428772-2.6318359,1.8488159-5.670166,1.1630249-8.6696777  c-0.7597656-3.3232422-2.7763672-6.1953125-5.6777344-8.0898438c-7.7226562-5.0380859-23.3613281-1.640625-24.0234375-1.4941406  c-0.5244141,0.1171875-0.8623047,0.6259766-0.7675781,1.1542969C10.1513672,42.7294922,13.03125,58.2255859,21.0644531,63.46875  c0,0.0009766,0,0.0009766,0,0.0009766c2.2470703,1.4658203,4.7695312,2.1679688,7.2451172,2.1679688  c3.8178101,0,7.5081177-1.6889648,9.9226074-4.7993774l10.7733154,7.0262451l-0.0021973,5.2338867  c-1.0371704,0.079834-2.0690918,0.2745361-3.0687256,0.6134644c-2.4082031-2.6181641-5.7792969-4.1054688-9.3564453-4.1054688  c-4.8076172,0-9.1669922,2.6972656-11.3291016,6.9394531c-0.8476562-0.1748047-1.6962891-0.2636719-2.53125-0.2636719  C15.7050781,76.2822266,10,81.9873047,10,89C10,89.5527344,10.4472656,90,11,90z M77.8583984,61.7939453  c-4.7856445,3.125061-11.0354614,2.1673584-14.4096069-2.0408936l2.7824097-1.8146362l12.7437744,3.0188599  C78.6148682,61.262085,78.243103,61.5429077,77.8583984,61.7939453z M84.8074951,52.1876221l-7.1580811-1.6958618  l9.8372192-6.4155884C86.987793,46.083313,86.1183472,49.1126099,84.8074951,52.1876221z M80.6131592,59.2908325  l-12.0708008-2.8596802l6.7960815-4.432251l8.6173706,2.0415039C83.024292,55.9436035,81.9151001,57.7681885,80.6131592,59.2908325z   M76.56073,48.8139648l1.3065186-7.1345215c3.3153687,0.0355225,6.4317627,0.4233398,8.4828491,0.7501831L76.56073,48.8139648z   M74.2525024,50.3193359l-6.793457,4.430481L69.68396,42.6020508c1.8989868-0.5504761,4.0192261-0.819519,6.1467285-0.901062  L74.2525024,50.3193359z M61.4658203,50.9472656c0.6435547-2.8144531,2.3554688-5.2509766,4.8222656-6.859375  c0.3804932-0.2484131,0.7885742-0.4700928,1.2141113-0.6737671l-2.3526611,12.8419189l-2.7957764,1.8233643  C61.2202759,55.9081421,60.9022217,53.4121704,61.4658203,50.9472656z M38.5507812,50.9472656  c0.5635986,2.4648438,0.2456055,4.9606934-0.8878174,7.131958l-2.7959595-1.8234863l-2.3533325-12.845459  c0.4269409,0.2040405,0.8342285,0.4285889,1.2158203,0.6776123C36.1953125,45.6962891,37.9072266,48.1328125,38.5507812,50.9472656z   M19.4033203,59.2908325c-1.3016968-1.5227661-2.4107666-3.3473511-3.3422241-5.2504883l8.6177368-2.0413818l6.7957153,4.4320679  L19.4033203,59.2908325z M12.5298462,44.0755005l9.8378906,6.4161377l-7.1583252,1.6959229  C13.8983765,49.1121216,13.0286865,46.0825806,12.5298462,44.0755005z M22.1484375,41.6752319l1.307312,7.1381836  l-9.7891235-6.3843994C15.7181396,42.1021118,18.8344727,41.7105713,22.1484375,41.6752319z M25.7652588,50.3196411  l-1.5778198-8.6117554c2.1279297,0.0817871,4.2463989,0.3482666,6.1461182,0.899292l2.223938,12.1422729L25.7652588,50.3196411z   M22.1582031,61.7939453v0.0009766c-0.3849487-0.2512817-0.756958-0.5322876-1.1172485-0.8374634l12.744751-3.019104  l2.7821045,1.8144531C33.1939087,63.9595337,26.9456787,64.9190063,22.1582031,61.7939453z M42.7626953,21.819397  l6.2592773,5.9458008l-0.0032959,7.9815674l-8.8218994-8.3786621C40.7657471,25.5063477,41.6856079,23.6174927,42.7626953,21.819397  z M59.8773804,27.3373413l-8.8587036,8.4146729l0.0032959-7.9821167l6.3292847-6.0125122  C58.4172363,23.5491943,59.3227539,25.4447021,59.8773804,27.3373413z M49.0230713,25.0088501l-5.1735229-4.9142456  c1.8080444-2.7041016,3.8017578-5.0568237,5.1782837-6.5766602L49.0230713,25.0088501z M51.0161743,41.7781982l0.0013428-3.2676392  l9.3562012-8.8875732c0.055542,0.4539795,0.0873413,0.9049683,0.0872192,1.350647  C60.4591064,36.6091919,56.3059692,41.2526245,51.0161743,41.7781982z M56.2659912,20.0310669l-5.2429199,4.9802246  l0.0047607-11.546814C52.4168091,14.9602051,54.4404907,17.3024902,56.2659912,20.0310669z M42.6533203,38.6669922  c-1.9794922-2.0507812-3.0683594-4.7802734-3.0673828-7.6865234c0.0001221-0.4420776,0.0319214-0.8917236,0.0916748-1.3466187  l9.3399048,8.8702393l-0.0013428,3.2763672C46.6138306,41.5442505,44.3832397,40.4604492,42.6533203,38.6669922z   M22.7177734,78.2822266c0.9277344,0,1.8779297,0.1318359,2.8261719,0.390625  c0.4833984,0.1289062,0.9853516-0.1123047,1.1826172-0.5703125c1.6933594-3.9462891,5.5605469-6.4960938,9.8515625-6.4960938  c3.2167969,0,6.2363281,1.4277344,8.2832031,3.9179688c0.2773438,0.3369141,0.7412109,0.4570312,1.1455078,0.2929688  C47.2900391,75.3017578,48.6337891,75.0400391,50,75.0400391c2.3242188,0,4.5439453,0.7441406,6.4189453,2.1513672  c0.2148438,0.1611328,0.4833984,0.2265625,0.7490234,0.1894531c0.2646484-0.0400391,0.5029297-0.1845703,0.6601562-0.4013672  c2.4472656-3.3642578,6.3779297-5.3730469,10.5126953-5.3730469c4.6826172,0,9.0244141,2.5429688,11.3310547,6.6367188  c0.1289062,0.2275391,0.3417969,0.3964844,0.5927734,0.4697266C84.4960938,79.9375,87.5419922,83.6748047,87.9521484,88h-75.90625  C12.5527344,82.5576172,17.1455078,78.2822266,22.7177734,78.2822266z"/></g><g id="SvgjsG4365" featureKey="nameFeature-0" transform="matrix(2.2251264325743447,0,0,2.2251264325743447,91.54974713485132,-16.91095961433746)" fill="#000"><path d="M2 40 l0 -32 l6 0 c6 0 6 4.4 6 15.16 c0 12.4 0 16.84 -6 16.84 l-6 0 z M6 36 l2 0 c2.24 0 2.24 -1.68 2.24 -12.84 c0 -10 0 -11.96 -2.24 -11.96 l-2 0 l0 24.8 z M20.1 40 l0 -32 l4 0 l0 32 l-4 0 z M30.200000000000003 23.16 c0 -11.16 0 -15.56 6 -15.56 c4.56 0 5.64 2.52 5.92 8.56 l-3.72 0 c-0.16 -4.36 -0.6 -5.36 -2.2 -5.36 c-2.24 0 -2.24 1.96 -2.24 12.36 c0 11.56 0 13.24 2.24 13.24 c2.12 0 2.24 -1.52 2.24 -10 l-2.64 0 l0 -3.2 l6.4 0 l0 1.56 c0 11.2 0 15.64 -6 15.64 s-6 -4.44 -6 -17.24 z M47.900000000000006 40 l0 -32 l4 0 l0 32 l-4 0 z M58.400000000000006 40 l0 -32 l8.4 0 l0 3.2 l-4.4 0 l0 12 l3.6 0 l0 3.2 l-3.6 0 l0 13.6 l-4 0 z M72.10000000000001 40 l0 -16.8 c0 -11.16 0 -15.56 6 -15.56 s6 4.4 6 15.56 l0 16.8 l-4 0 l0 -9.2 l-4 0 l0 9.2 l-4 0 z M76.10000000000001 27.6 l4 0 l0 -4.4 c0 -10.4 0 -12.36 -2 -12.36 s-2 1.96 -2 12.36 l0 4.4 z M90.60000000000001 40 l0 -32 l6.48 0 c4.12 0 5.52 2.52 5.52 7.36 c0 4.36 -0.52 6.84 -1.76 8.04 l0 0.24 c1.04 0.36 1.36 2.24 1.76 6.92 l0.8 9.44 l-4 0 l-0.52 -9.44 c-0.28 -4.76 -1 -5.76 -2.2 -5.76 l-2.08 0 l0 15.2 l-4 0 z M94.60000000000001 21.6 l2.48 0 c1.4 0 1.8 -1.4 1.8 -6.24 c0 -3.16 -0.6 -4.16 -1.8 -4.16 l-2.48 0 l0 10.4 z M109.10000000000001 40 l0 -32 l3.6 0 l4.2 20 l0.4 0 l4.2 -20 l3.6 0 l0 32 l-4 0 l0 -16 l-2.84 16 l-2.4 0 l-2.76 -16 l0 16 l-4 0 z"/></g><g id="SvgjsG4366" featureKey="sloganFeature-0" transform="matrix(0.9241794818902854,0,0,0.9241794818902854,93.87438833742846,86.32742477533583)" fill="#000"><path d="M2.3 15.879999999999999 l0 -4.82 c0 -2.88 1.58 -3.74 3.9 -3.74 c1.92 0 3.78 0.98 3.78 3 c0 0.44 -0.32 0.66 -0.66 0.66 s-0.68 -0.22 -0.68 -0.66 c0 -1.02 -1.12 -1.7 -2.44 -1.7 c-1.82 0 -2.58 0.74 -2.58 2.44 l0 4.82 c0 1.74 0.96 2.28 2.58 2.28 c1.92 0 2.6 -0.92 2.6 -2.7 l0 -0.84 l-1.8 0 c-0.42 0 -0.64 -0.32 -0.64 -0.66 s0.22 -0.68 0.64 -0.68 l2.5 0 c0.4 0 0.62 0.4 0.62 0.68 l0 1.5 c0 2.88 -1.12 4 -3.92 4 c-2.64 0 -3.9 -0.96 -3.9 -3.58 z M16.18 15.9 l0 2.86 c0 0.44 -0.34 0.64 -0.66 0.64 c-0.34 0 -0.66 -0.2 -0.66 -0.64 l0 -10.74 c0 -0.4 0.22 -0.66 0.66 -0.66 l2.7 0 c0.76 0 3.16 0.22 3.16 2.92 l0 2.5 c0 1.52 -0.56 2.48 -1.84 2.9 l1.36 2.74 c0.28 0.54 -0.14 0.98 -0.58 0.98 c-0.24 0 -0.54 -0.16 -0.7 -0.5 l-1.46 -3 l-1.98 0 z M20.060000000000002 12.780000000000001 l0 -2.5 c0 -0.48 -0.18 -1.58 -1.84 -1.58 l-2.04 0 l0 5.86 l1.86 0 c0.98 0 2.02 -0.22 2.02 -1.78 z M26.040000000000003 15.86 l0 -4.96 c0 -2.4 1.24 -3.68 3.64 -3.68 l0.52 0 c2.38 0 3.64 1.28 3.64 3.68 l0 4.96 c0 2.2 -1.46 3.64 -3.64 3.64 l-0.52 0 c-2.22 0 -3.64 -1.46 -3.64 -3.64 z M29.680000000000003 18.16 l0.52 0 c1.44 0 2.3 -0.9 2.3 -2.3 l0 -4.96 c0 -1.56 -0.76 -2.36 -2.3 -2.36 l-0.52 0 c-1.52 0 -2.36 0.82 -2.36 2.36 l0 4.96 c0 1.46 0.92 2.3 2.36 2.3 z M42.160000000000004 16.96 l2.4 -6.36 l-0.6 -2.34 c-0.26 -0.96 1.08 -1.2 1.3 -0.36 l2.36 8.68 l2.54 -8.68 c0.26 -0.9 1.58 -0.52 1.32 0.34 l-3.1 10.54 c-0.12 0.38 -0.46 0.62 -0.78 0.62 c-0.36 0 -0.68 -0.22 -0.8 -0.62 l-1.64 -6.02 c-0.76 2 -1.56 4.04 -2.3 6.04 c-0.14 0.36 -0.46 0.6 -0.76 0.6 s-0.6 -0.2 -0.74 -0.64 l-3.18 -10.52 c-0.26 -0.86 0.96 -1.14 1.22 -0.38 z M55.76 7.359999999999999 l6.04 0 c0.42 0 0.62 0.34 0.62 0.68 s-0.2 0.66 -0.62 0.66 l-2.28 0 l0 10.06 c0 0.42 -0.34 0.64 -0.68 0.64 s-0.66 -0.22 -0.66 -0.64 l0 -10.06 l-2.42 0 c-0.42 0 -0.62 -0.32 -0.62 -0.66 s0.2 -0.68 0.62 -0.68 z M66.62 18.76 l0 -10.76 c0 -0.42 0.32 -0.62 0.66 -0.62 s0.68 0.2 0.68 0.62 l0 4.58 l4.54 0 l0 -4.58 c0 -0.42 0.32 -0.64 0.64 -0.64 s0.66 0.22 0.66 0.64 l0 10.76 c0 0.42 -0.34 0.64 -0.66 0.64 s-0.64 -0.22 -0.64 -0.64 l0 -4.82 l-4.54 0 l0 4.82 c0 0.42 -0.34 0.64 -0.68 0.64 s-0.66 -0.22 -0.66 -0.64 z M86.34 18.72 l0 -10.72 c0 -0.32 0.16 -0.64 0.6 -0.64 l2.62 0 c1.98 0 3.06 0.72 3.06 2.72 c0 0.8 -0.1 1.58 -0.6 2.12 c1.14 0.8 1.34 2.18 1.34 3.58 c0 2.46 -1.34 3.62 -3.64 3.62 l-2.68 0 c-0.34 0 -0.7 -0.12 -0.7 -0.68 z M87.68 18.08 l1.74 0 c1.66 0 2.58 -0.68 2.58 -2.3 c0 -1.66 -0.42 -2.78 -2.04 -2.78 l-2.28 0 l0 5.08 z M91.3 10.08 c0 -1.2 -0.84 -1.38 -1.74 -1.38 l-1.88 0 l0 2.96 l1.84 0 c1.26 0 1.78 -0.36 1.78 -1.58 z M97.84 18.7 l0 -10.64 c0 -0.46 0.36 -0.7 0.7 -0.7 l4.6 0 c0.44 0 0.66 0.32 0.66 0.66 s-0.22 0.68 -0.66 0.68 l-3.96 0 l0 3.88 l3.14 0 c0.46 0 0.68 0.32 0.68 0.66 s-0.24 0.7 -0.68 0.7 l-3.14 0 l0 4.14 l3.96 0 c0.42 0 0.64 0.34 0.64 0.66 c0 0.34 -0.22 0.66 -0.64 0.66 l-4.6 0 c-0.34 0 -0.7 -0.12 -0.7 -0.7 z M114.1 8.3 l-2.48 5.14 l0 5.32 c0 0.44 -0.32 0.64 -0.64 0.64 c-0.34 0 -0.66 -0.22 -0.66 -0.64 l0 -5.32 l-2.54 -5.12 c-0.42 -0.88 0.8 -1.4 1.22 -0.56 l1.98 3.96 l1.9 -3.94 c0.44 -0.92 1.64 -0.34 1.22 0.52 z M118.42 15.86 l0 -4.96 c0 -2.4 1.24 -3.68 3.64 -3.68 l0.52 0 c2.38 0 3.64 1.28 3.64 3.68 l0 4.96 c0 2.2 -1.46 3.64 -3.64 3.64 l-0.52 0 c-2.22 0 -3.64 -1.46 -3.64 -3.64 z M122.06 18.16 l0.52 0 c1.44 0 2.3 -0.9 2.3 -2.3 l0 -4.96 c0 -1.56 -0.76 -2.36 -2.3 -2.36 l-0.52 0 c-1.52 0 -2.36 0.82 -2.36 2.36 l0 4.96 c0 1.46 0.92 2.3 2.36 2.3 z M137.79999999999998 8 l0 10.76 c0 0.42 -0.32 0.64 -0.64 0.64 c-0.24 0 -0.56 -0.18 -0.7 -0.44 c-1.5 -2.94 -2.62 -5.2 -4.12 -8.16 l0 7.96 c0 0.42 -0.32 0.64 -0.66 0.64 c-0.32 0 -0.66 -0.22 -0.66 -0.64 l0 -10.76 c0 -0.7 1 -0.74 1.22 -0.32 l4.22 8.34 l0 -8.02 c0 -0.42 0.32 -0.64 0.66 -0.64 s0.68 0.22 0.68 0.64 z M142.92 18.78 l0 -10.76 c0 -0.54 0.38 -0.66 0.66 -0.66 l3.2 0 c2.64 0 3.94 1.26 3.94 3.74 l0 5.12 c0 1.56 -1.22 3.2 -3.88 3.2 l-3.26 0 c-0.28 0 -0.66 -0.16 -0.66 -0.64 z M149.39999999999998 16.22 l0 -5.12 c0 -1.64 -0.88 -2.4 -2.62 -2.4 l-2.54 0 l0 9.42 l2.6 0 c1.22 0 2.56 -0.66 2.56 -1.9 z M162.95999999999998 18.72 l0 -10.72 c0 -0.32 0.16 -0.64 0.6 -0.64 l2.62 0 c1.98 0 3.06 0.72 3.06 2.72 c0 0.8 -0.1 1.58 -0.6 2.12 c1.14 0.8 1.34 2.18 1.34 3.58 c0 2.46 -1.34 3.62 -3.64 3.62 l-2.68 0 c-0.34 0 -0.7 -0.12 -0.7 -0.68 z M164.29999999999998 18.08 l1.74 0 c1.66 0 2.58 -0.68 2.58 -2.3 c0 -1.66 -0.42 -2.78 -2.04 -2.78 l-2.28 0 l0 5.08 z M167.92 10.08 c0 -1.2 -0.84 -1.38 -1.74 -1.38 l-1.88 0 l0 2.96 l1.84 0 c1.26 0 1.78 -0.36 1.78 -1.58 z M174.29999999999998 15.86 l0 -4.96 c0 -2.4 1.24 -3.68 3.64 -3.68 l0.52 0 c2.38 0 3.64 1.28 3.64 3.68 l0 4.96 c0 2.2 -1.46 3.64 -3.64 3.64 l-0.52 0 c-2.22 0 -3.64 -1.46 -3.64 -3.64 z M177.93999999999997 18.16 l0.52 0 c1.44 0 2.3 -0.9 2.3 -2.3 l0 -4.96 c0 -1.56 -0.76 -2.36 -2.3 -2.36 l-0.52 0 c-1.52 0 -2.36 0.82 -2.36 2.36 l0 4.96 c0 1.46 0.92 2.3 2.36 2.3 z M188.23999999999998 15.9 l0 2.86 c0 0.44 -0.34 0.64 -0.66 0.64 c-0.34 0 -0.66 -0.2 -0.66 -0.64 l0 -10.74 c0 -0.4 0.22 -0.66 0.66 -0.66 l2.7 0 c0.76 0 3.16 0.22 3.16 2.92 l0 2.5 c0 1.52 -0.56 2.48 -1.84 2.9 l1.36 2.74 c0.28 0.54 -0.14 0.98 -0.58 0.98 c-0.24 0 -0.54 -0.16 -0.7 -0.5 l-1.46 -3 l-1.98 0 z M192.11999999999998 12.780000000000001 l0 -2.5 c0 -0.48 -0.18 -1.58 -1.84 -1.58 l-2.04 0 l0 5.86 l1.86 0 c0.98 0 2.02 -0.22 2.02 -1.78 z M198.32 18.78 l0 -10.76 c0 -0.54 0.38 -0.66 0.66 -0.66 l3.2 0 c2.64 0 3.94 1.26 3.94 3.74 l0 5.12 c0 1.56 -1.22 3.2 -3.88 3.2 l-3.26 0 c-0.28 0 -0.66 -0.16 -0.66 -0.64 z M204.79999999999998 16.22 l0 -5.12 c0 -1.64 -0.88 -2.4 -2.62 -2.4 l-2.54 0 l0 9.42 l2.6 0 c1.22 0 2.56 -0.66 2.56 -1.9 z M210.88 18.7 l0 -10.64 c0 -0.46 0.36 -0.7 0.7 -0.7 l4.6 0 c0.44 0 0.66 0.32 0.66 0.66 s-0.22 0.68 -0.66 0.68 l-3.96 0 l0 3.88 l3.14 0 c0.46 0 0.68 0.32 0.68 0.66 s-0.24 0.7 -0.68 0.7 l-3.14 0 l0 4.14 l3.96 0 c0.42 0 0.64 0.34 0.64 0.66 c0 0.34 -0.22 0.66 -0.64 0.66 l-4.6 0 c-0.34 0 -0.7 -0.12 -0.7 -0.7 z M222.78 15.9 l0 2.86 c0 0.44 -0.34 0.64 -0.66 0.64 c-0.34 0 -0.66 -0.2 -0.66 -0.64 l0 -10.74 c0 -0.4 0.22 -0.66 0.66 -0.66 l2.7 0 c0.76 0 3.16 0.22 3.16 2.92 l0 2.5 c0 1.52 -0.56 2.48 -1.84 2.9 l1.36 2.74 c0.28 0.54 -0.14 0.98 -0.58 0.98 c-0.24 0 -0.54 -0.16 -0.7 -0.5 l-1.46 -3 l-1.98 0 z M226.66 12.780000000000001 l0 -2.5 c0 -0.48 -0.18 -1.58 -1.84 -1.58 l-2.04 0 l0 5.86 l1.86 0 c0.98 0 2.02 -0.22 2.02 -1.78 z M232.56 17.68 c-0.44 -0.82 0.68 -1.42 1.2 -0.6 c0.26 0.42 1.04 1.14 2.28 1.14 c0.52 0 1.82 -0.38 2 -1.86 c0.12 -0.9 -0.74 -1.78 -2.22 -2.52 c-2.08 -0.98 -3.66 -1.84 -3.66 -3.56 c0 -2.04 1.72 -3 3.56 -3 c1.66 0 2.58 1.02 2.9 1.54 c0.46 0.74 -0.54 1.46 -1.1 0.74 c-0.28 -0.36 -0.82 -0.96 -1.8 -0.96 c-1.1 0 -2.24 0.52 -2.24 1.68 c0 0.92 1.02 1.44 2.54 2.16 c1.78 0.88 3.64 1.74 3.36 4.08 c-0.22 1.84 -1.62 3.02 -3.34 3.02 c-1.3 0 -2.9 -0.7 -3.48 -1.86 z"/></g>
			</g>
		</svg>
	